<?xml version="1.0" encoding="UTF-8"?>
<svg width="128" height="128" version="1.1" xmlns="http://www.w3.org/2000/svg">
<path d="m56.05 97.43c-0.48 1.98-0.66 2.51-1.21 4.47-0.37 1.34-0.74 2.79-1.47 3.99-1.24 2.04-3.62 1.66-5.68 1.52-3.45-0.24-6.88-0.74-10.32-0.33-0.52 0.06-3.9 0.54-3.9 1.75 0 0.87 1.65 1 2.25 1.17 1.19 0.33 3.26 0.28 3.61 0.84 0.32 0.71-0.75 1.55-1.59 2.25-0.51 0.43-2.36 1.83-1.96 2.71 0.42 0.93 2.6 0.33 3.27 0.17 1.2-0.29 3.19-1 4.13-0.74 1.34 0.5-2.31 3.64-1.51 4.24 1.01 0.76 3.58-0.24 4.33-0.72 3.12-1.98 3.99-2.52 5.94-4.33 1.86-1.73 3.82-3.16 5.16-5.36 1.28-2.09 1.22-4.55 1.79-6.85 0.62-2.48 2.38-7.12 1.44-7.28-1.16-0.25-2.92-0.53-3.29-0.29-0.39 0.25-0.61 1.53-0.99 2.79z" fill="#fe9940"/>
<path d="m81.23 98.16c-0.11 2.03-0.19 2.59-0.37 4.62-0.12 1.39-0.22 2.88-0.72 4.19-0.84 2.23-3.25 2.29-5.31 2.53-3.43 0.4-6.89 0.54-10.2 1.57-0.5 0.15-3.73 1.24-3.51 2.43 0.16 0.86 1.81 0.68 2.42 0.73 1.23 0.1 3.26-0.33 3.7 0.17 0.45 0.64-0.45 1.67-1.15 2.51-0.43 0.52-1.98 2.23-1.43 3.03 0.58 0.83 2.62-0.15 3.25-0.43 1.13-0.51 2.95-1.57 3.92-1.48 1.41 0.25-1.6 4-0.71 4.45 1.13 0.56 3.48-0.9 4.12-1.5 2.71-2.52 3.46-3.21 5.04-5.35 1.51-2.04 3.17-3.8 4.09-6.22 0.87-2.29 0.36-4.7 0.5-7.07 0.15-2.55 1.03-7.43 0.08-7.42-1.19-0.03-2.97 0.01-3.29 0.32-0.3 0.3-0.28 1.61-0.43 2.92z" fill="#fe9940"/>
<path d="m49.56 41.81c1.33-6.67 8.4-18.32 8.49-26.44 0.06-5.21-6.31-14.92-17.47-9.95s-7.28 16.62-7.28 16.62c2.2 5.78 6.28 5.82 8.28 6.03s0.75 1.92-0.64 3.07c-2.76 2.3-5.37 4.71-7.74 7.21 3.62 0.67 9.9 2.03 16.2 4.32 0.06-0.28 0.1-0.55 0.16-0.86z" fill="#689136"/>
<path d="m112.51 80.63c-11.89-7.04-24.99-16.25-29.6-19.41-14.91-11.16-25.34-12.37-28.86-12.25-2.26 0.08-4.02-0.16-4.63-2.1-6.24-2.08-15.04-3.7-19.74-4.49-5.07 6.29-8.44 13.06-8.74 20.05-0.49 11.4 12.74 32.02 44.27 33.96s45-8.37 48.76-11.04c3.76-2.66 0.24-3.75-1.46-4.72z" fill="#806547"/>
<path d="m49.41 42.67c-6.3-2.29-12.58-3.65-16.2-4.32-1.25 1.32-2.43 2.67-3.53 4.03 4.71 0.78 13.51 2.41 19.74 4.49-0.3-0.94-0.32-2.29-0.01-4.2z" fill="#fef3cd"/>
<path d="m34.44 15.61s-1.17-2.8-2.35-0.34c-1.17 2.46-4.19 6.99-10.68 6.82-6.48-0.17-8.94-0.22-9.06 1.4-0.11 1.62 5.09 2.57 9 2.18s2.7863 0.05119 8.5683-0.16602c2.07-0.84 8.1005 2.5078 7.4305 1.8878-0.67-0.61-1.9588-9.8217-2.9088-11.782z" fill="#ffae48"/>
<path d="m64.07 58.87c-4.45-2.61-13.24-4.41-16.43 1.13-3.18 5.54-2.57 13.96 10.27 19.92s27.38 5.85 42.61 5.34c3.29 0.21 6.26-0.72 3.49-2.26s-14.58-9.24-21.05-13.24c-5.02-3.12-14.68-8.43-18.89-10.89z" fill="#bb927a"/>
<circle cx="42.97" cy="14.26" r="3.94" fill="#fff"/>
<circle cx="42.928" cy="14.218" r="4.1474" fill="#333" stroke-width="1.5592"/>
<circle cx="42.702" cy="14.257" r="1.4474" fill="#fff" stroke-width="2.2616"/>
</svg>
